<svg width="185" height="56" viewBox="0 0 185 56" fill="none" xmlns="http://www.w3.org/2000/svg">
<path d="M60.4148 25.2557C59.0682 25.2557 57.9091 24.983 56.9375 24.4375C55.9716 23.8864 55.2273 23.108 54.7045 22.1023C54.1818 21.0909 53.9205 19.8949 53.9205 18.5142C53.9205 17.1676 54.1818 15.9858 54.7045 14.9688C55.2273 13.9517 55.9631 13.1591 56.9119 12.5909C57.8665 12.0227 58.9858 11.7386 60.2699 11.7386C61.1335 11.7386 61.9375 11.8778 62.6818 12.1562C63.4318 12.429 64.0852 12.8409 64.642 13.392C65.2045 13.9432 65.642 14.6364 65.9545 15.4716C66.267 16.3011 66.4233 17.2727 66.4233 18.3864V19.3835H55.3693V17.1335H63.0057C63.0057 16.6108 62.892 16.1477 62.6648 15.7443C62.4375 15.3409 62.1222 15.0256 61.7188 14.7983C61.321 14.5653 60.858 14.4489 60.3295 14.4489C59.7784 14.4489 59.2898 14.5767 58.8636 14.8324C58.4432 15.0824 58.1136 15.4205 57.875 15.8466C57.6364 16.267 57.5142 16.7358 57.5085 17.2528V19.392C57.5085 20.0398 57.6278 20.5994 57.8665 21.071C58.1108 21.5426 58.4545 21.9062 58.8977 22.1619C59.3409 22.4176 59.8665 22.5455 60.4744 22.5455C60.8778 22.5455 61.2472 22.4886 61.5824 22.375C61.9176 22.2614 62.2045 22.0909 62.4432 21.8636C62.6818 21.6364 62.8636 21.358 62.9886 21.0284L66.3466 21.25C66.1761 22.0568 65.8267 22.7614 65.2983 23.3636C64.7756 23.9602 64.0994 24.4261 63.2699 24.7614C62.446 25.0909 61.4943 25.2557 60.4148 25.2557ZM85.576 11.9091V14.6364H77.6925V11.9091H85.576ZM79.4822 8.77273H83.1129V20.9773C83.1129 21.3125 83.1641 21.5739 83.2663 21.7614C83.3686 21.9432 83.5107 22.071 83.6925 22.1449C83.88 22.2187 84.0959 22.2557 84.3402 22.2557C84.5107 22.2557 84.6811 22.2415 84.8516 22.2131C85.022 22.179 85.1527 22.1534 85.2436 22.1364L85.8146 24.8381C85.6328 24.8949 85.3771 24.9602 85.0476 25.0341C84.718 25.1136 84.3175 25.1619 83.8459 25.179C82.9709 25.2131 82.2038 25.0966 81.5447 24.8295C80.8913 24.5625 80.3828 24.1477 80.0192 23.5852C79.6555 23.0227 79.4766 22.3125 79.4822 21.4545V8.77273Z" fill="#23232E"/>
<path d="M68.7926 25V11.9091H72.3125V14.1932H72.4489C72.6875 13.3807 73.0881 12.767 73.6506 12.3523C74.2131 11.9318 74.8608 11.7216 75.5938 11.7216C75.7756 11.7216 75.9716 11.733 76.1818 11.7557C76.392 11.7784 76.5767 11.8097 76.7358 11.8494V15.071C76.5653 15.0199 76.3295 14.9744 76.0284 14.9347C75.7273 14.8949 75.4517 14.875 75.2017 14.875C74.6676 14.875 74.1903 14.9915 73.7699 15.2244C73.3551 15.4517 73.0256 15.7699 72.7812 16.179C72.5426 16.5881 72.4233 17.0597 72.4233 17.5938V25H68.7926Z" fill="#00F0FF"/>
<path d="M65.7273 54.5114C63.0795 54.5114 60.7898 53.9489 58.858 52.8239C56.9375 51.6875 55.4545 50.108 54.4091 48.0852C53.3636 46.0511 52.8409 43.6932 52.8409 41.0114C52.8409 38.3068 53.3636 35.9432 54.4091 33.9205C55.4545 31.8864 56.9375 30.3068 58.858 29.1818C60.7898 28.0455 63.0795 27.4773 65.7273 27.4773C68.375 27.4773 70.6591 28.0455 72.5795 29.1818C74.5114 30.3068 76 31.8864 77.0455 33.9205C78.0909 35.9432 78.6136 38.3068 78.6136 41.0114C78.6136 43.6932 78.0909 46.0511 77.0455 48.0852C76 50.108 74.5114 51.6875 72.5795 52.8239C70.6591 53.9489 68.375 54.5114 65.7273 54.5114ZM65.7614 48.8864C66.9659 48.8864 67.9716 48.5455 68.7784 47.8636C69.5852 47.1705 70.1932 46.2273 70.6023 45.0341C71.0227 43.8409 71.233 42.483 71.233 40.9602C71.233 39.4375 71.0227 38.0795 70.6023 36.8864C70.1932 35.6932 69.5852 34.75 68.7784 34.0568C67.9716 33.3636 66.9659 33.017 65.7614 33.017C64.5455 33.017 63.5227 33.3636 62.6932 34.0568C61.875 34.75 61.2557 35.6932 60.8352 36.8864C60.4261 38.0795 60.2216 39.4375 60.2216 40.9602C60.2216 42.483 60.4261 43.8409 60.8352 45.0341C61.2557 46.2273 61.875 47.1705 62.6932 47.8636C63.5227 48.5455 64.5455 48.8864 65.7614 48.8864Z" fill="#00F0FF"/>
<path d="M90.1166 38.8636V54H82.8552V27.8182H89.7757V32.4375H90.0825C90.662 30.9148 91.6336 29.7102 92.9973 28.8239C94.3609 27.9261 96.0143 27.4773 97.9575 27.4773C99.7757 27.4773 101.361 27.875 102.713 28.6705C104.065 29.4659 105.117 30.6023 105.867 32.0795C106.617 33.5455 106.992 35.2955 106.992 37.3295V54H99.7302V38.625C99.7416 37.0227 99.3325 35.7727 98.503 34.875C97.6734 33.9659 96.5314 33.5114 95.0768 33.5114C94.0995 33.5114 93.2359 33.7216 92.4859 34.142C91.7473 34.5625 91.1677 35.1761 90.7473 35.983C90.3382 36.7784 90.128 37.7386 90.1166 38.8636ZM126.161 27.8182V33.2727H110.394V27.8182H126.161ZM113.973 21.5455H121.235V45.9545C121.235 46.625 121.337 47.1477 121.541 47.5227C121.746 47.8864 122.03 48.142 122.394 48.2898C122.769 48.4375 123.201 48.5114 123.689 48.5114C124.03 48.5114 124.371 48.483 124.712 48.4261C125.053 48.358 125.314 48.3068 125.496 48.2727L126.638 53.6761C126.274 53.7898 125.763 53.9205 125.104 54.0682C124.445 54.2273 123.644 54.3239 122.701 54.358C120.951 54.4261 119.416 54.1932 118.098 53.6591C116.791 53.125 115.774 52.2955 115.047 51.1705C114.32 50.0455 113.962 48.625 113.973 46.9091V21.5455ZM130.411 54V27.8182H137.451V32.3864H137.723C138.201 30.7614 139.002 29.5341 140.127 28.7045C141.252 27.8636 142.547 27.4432 144.013 27.4432C144.377 27.4432 144.769 27.4659 145.189 27.5114C145.61 27.5568 145.979 27.6193 146.297 27.6989V34.142C145.956 34.0398 145.485 33.9489 144.882 33.8693C144.28 33.7898 143.729 33.75 143.229 33.75C142.161 33.75 141.206 33.983 140.365 34.4489C139.536 34.9034 138.877 35.5398 138.388 36.358C137.911 37.1761 137.672 38.1193 137.672 39.1875V54H130.411ZM160.182 54.5114C157.535 54.5114 155.245 53.9489 153.313 52.8239C151.393 51.6875 149.91 50.108 148.864 48.0852C147.819 46.0511 147.296 43.6932 147.296 41.0114C147.296 38.3068 147.819 35.9432 148.864 33.9205C149.91 31.8864 151.393 30.3068 153.313 29.1818C155.245 28.0455 157.535 27.4773 160.182 27.4773C162.83 27.4773 165.114 28.0455 167.035 29.1818C168.966 30.3068 170.455 31.8864 171.5 33.9205C172.546 35.9432 173.069 38.3068 173.069 41.0114C173.069 43.6932 172.546 46.0511 171.5 48.0852C170.455 50.108 168.966 51.6875 167.035 52.8239C165.114 53.9489 162.83 54.5114 160.182 54.5114ZM160.216 48.8864C161.421 48.8864 162.427 48.5455 163.233 47.8636C164.04 47.1705 164.648 46.2273 165.057 45.0341C165.478 43.8409 165.688 42.483 165.688 40.9602C165.688 39.4375 165.478 38.0795 165.057 36.8864C164.648 35.6932 164.04 34.75 163.233 34.0568C162.427 33.3636 161.421 33.017 160.216 33.017C159 33.017 157.978 33.3636 157.148 34.0568C156.33 34.75 155.711 35.6932 155.29 36.8864C154.881 38.0795 154.677 39.4375 154.677 40.9602C154.677 42.483 154.881 43.8409 155.29 45.0341C155.711 46.2273 156.33 47.1705 157.148 47.8636C157.978 48.5455 159 48.8864 160.216 48.8864ZM184.572 19.0909V54H177.31V19.0909H184.572Z" fill="#23232E"/>
<path d="M49 19.8289H37.3549C37.1422 18.3207 36.7079 16.981 36.0521 15.8099C35.3963 14.621 34.5544 13.6096 33.5263 12.7757C32.4983 11.9417 31.3107 11.3029 29.9636 10.8593C28.6343 10.4157 27.1897 10.1939 25.63 10.1939C22.8117 10.1939 20.3568 10.8948 18.2653 12.2966C16.1738 13.6806 14.552 15.7034 13.3999 18.365C12.2478 21.0089 11.6717 24.2205 11.6717 28C11.6717 31.8859 12.2478 35.1508 13.3999 37.7947C14.5697 40.4385 16.2004 42.4347 18.2919 43.7833C20.3834 45.1318 22.8029 45.8061 25.5502 45.8061C27.0922 45.8061 28.5191 45.602 29.8307 45.1939C31.1601 44.7858 32.3388 44.1914 33.3668 43.4107C34.3948 42.6122 35.2456 41.6451 35.9192 40.5095C36.6104 39.3739 37.089 38.0786 37.3549 36.6236L49 36.6768C48.6987 39.1787 47.9454 41.5919 46.7401 43.9164C45.5525 46.2231 43.9485 48.2902 41.9278 50.1179C39.9249 51.9278 37.5321 53.365 34.7493 54.4297C31.9843 55.4766 28.8559 56 25.3641 56C20.5075 56 16.1649 54.8999 12.3364 52.6996C8.52559 50.4994 5.51239 47.3143 3.2968 43.1445C1.09893 38.9747 0 33.9265 0 28C0 22.0558 1.11666 16.9987 3.34997 12.8289C5.58329 8.65906 8.61422 5.48289 12.4428 3.30038C16.2713 1.10013 20.5784 0 25.3641 0C28.5191 0 31.4437 0.4436 34.1378 1.3308C36.8497 2.218 39.2514 3.51331 41.3429 5.21673C43.4344 6.90241 45.136 8.96958 46.4476 11.4183C47.777 13.8669 48.6278 16.6705 49 19.8289Z" fill="#23232E"/>
</svg>
